<svg t="1711813037105" class="icon" viewBox="0 0 1024 1024" version="1.1" xmlns="http://www.w3.org/2000/svg" p-id="3757" width="200" height="200"><path d="M537.6 117.76a419.84 419.84 0 1 0 411.2384 334.848c-7.68-37.1712-60.2624-38.5536-69.7856-1.8432a208.64 208.64 0 0 1-410.3168-52.7872 208.64 208.64 0 0 1 155.6992-201.8304c36.7104-9.5232 35.328-62.1056-1.792-69.7856A421.5296 421.5296 0 0 0 537.6 117.76zM485.7856 193.28l-7.5776 7.424a280.2176 280.2176 0 0 0 199.0144 477.44l11.9808-0.256a279.9616 279.9616 0 0 0 185.2928-80.896l7.3728-7.6288-1.28 8.192A348.2624 348.2624 0 0 1 189.44 537.6a348.2624 348.2624 0 0 1 288.1536-343.04l8.192-1.28z" fill="#ffffff" p-id="3758"></path></svg>