<svg t="1711813076341" class="icon" viewBox="0 0 1024 1024" version="1.1" xmlns="http://www.w3.org/2000/svg" p-id="6058" width="200" height="200"><path d="M512 829.5424c22.1184 0 40.0896 17.92 40.0896 40.0896v63.0784a40.0384 40.0384 0 1 1-80.1792 0v-63.0784c0-22.1696 17.92-40.0896 40.0896-40.0896z m-224.5632-93.0304a40.0384 40.0384 0 0 1 3.8912 52.224l-3.8912 4.4544-44.6464 44.6464a39.8848 39.8848 0 0 1-56.6784 0 40.0896 40.0896 0 0 1-3.84-52.1728l3.8912-4.5056 44.5952-44.6464a40.0384 40.0384 0 0 1 56.6784 0z m501.248-3.84l4.5568 3.84 44.544 44.6464a40.0384 40.0384 0 0 1-51.6608 60.928l-4.9664-4.2496-44.544-44.6464a40.0384 40.0384 0 0 1 52.1216-60.5184zM512 231.5264A280.832 280.832 0 0 1 792.4736 512 280.832 280.832 0 0 1 512 792.4736 280.832 280.832 0 0 1 231.5264 512 280.7808 280.7808 0 0 1 512 231.5264z m0 80.128A200.6016 200.6016 0 0 0 311.6544 512 200.6016 200.6016 0 0 0 512 712.3456 200.6016 200.6016 0 0 0 712.3456 512 200.6016 200.6016 0 0 0 512 311.6544z m-357.632 160.256a40.0896 40.0896 0 0 1 5.4272 79.8208l-5.4272 0.3584H91.2896a40.0896 40.0896 0 0 1-5.4784-79.7696l5.4784-0.4096h63.0784z m778.3424 0a40.0384 40.0384 0 1 1 0 80.1792h-63.0784a40.0384 40.0384 0 1 1 0-80.1792zM238.336 182.272l4.4544 3.8912 44.6464 44.6464a40.0384 40.0384 0 0 1-51.712 60.8768l-4.9664-4.2496-44.5952-44.6464A40.0896 40.0896 0 0 1 238.336 182.272z m599.5008 3.8912a40.0384 40.0384 0 0 1 3.8912 52.1728l-3.8912 4.4544-44.5952 44.6464a39.936 39.936 0 0 1-56.6784 0 40.0384 40.0384 0 0 1-3.8912-52.1216l3.8912-4.5056 44.5952-44.6464a40.0896 40.0896 0 0 1 56.6784 0zM512 51.2c20.2752 0 37.0688 15.0528 39.68 34.6112l0.4096 5.4272v63.1296a40.0896 40.0896 0 0 1-79.8208 5.4272l-0.3584-5.4272V91.2384c0-22.1184 17.92-40.0384 40.0896-40.0384z" fill="#666666" p-id="6059"></path></svg>